<svg xmlns="http://www.w3.org/2000/svg" width="50.5" height="50.5" viewBox="0 0 50.5 50.5">
  <g id="_003-dj-mixer" data-name="003-dj-mixer" transform="translate(0.25 0.25)">
    <path id="Pfad_23" data-name="Pfad 23" d="M150.21,161.382a.742.742,0,0,0,.742-.742,9.05,9.05,0,0,1,9.04-9.04.742.742,0,1,0,0-1.483,10.535,10.535,0,0,0-10.523,10.523A.741.741,0,0,0,150.21,161.382Zm0,0" transform="translate(-134.925 -135.51)" fill="#ec9b49" stroke="#ec9b49" stroke-width="0.5"/>
    <path id="Pfad_24" data-name="Pfad 24" d="M122.781,108.742a.742.742,0,0,0-.742-.742,14.7,14.7,0,0,0-14.688,14.688.742.742,0,1,0,1.483,0,13.22,13.22,0,0,1,13.2-13.2A.742.742,0,0,0,122.781,108.742Zm0,0" transform="translate(-96.926 -97.511)" fill="#ec9b49" stroke="#ec9b49" stroke-width="0.5"/>
    <path id="Pfad_25" data-name="Pfad 25" d="M46.176,0H3.824A3.828,3.828,0,0,0,0,3.824V46.176A3.828,3.828,0,0,0,3.824,50H46.176A3.828,3.828,0,0,0,50,46.176V3.824A3.828,3.828,0,0,0,46.176,0Zm2.359,46.176a2.362,2.362,0,0,1-2.359,2.359H3.824a2.362,2.362,0,0,1-2.359-2.359V3.824A2.362,2.362,0,0,1,3.824,1.465H46.176a2.362,2.362,0,0,1,2.359,2.359Zm0,0" fill="#ec9b49" stroke="#ec9b49" stroke-width="0.5"/>
    <path id="Pfad_26" data-name="Pfad 26" d="M199.849,205.988a6.162,6.162,0,1,0-6.162-6.162A6.169,6.169,0,0,0,199.849,205.988Zm0-10.84a4.679,4.679,0,1,1-4.678,4.679A4.684,4.684,0,0,1,199.849,195.147Zm0,0" transform="translate(-174.849 -174.828)" fill="#ec9b49" stroke="#ec9b49" stroke-width="0.5"/>
    <path id="Pfad_27" data-name="Pfad 27" d="M233.94,236.341a2.421,2.421,0,1,0-2.421-2.421A2.423,2.423,0,0,0,233.94,236.341Zm0-3.358a.937.937,0,1,1-.937.937A.939.939,0,0,1,233.94,232.983Zm0,0" transform="translate(-208.94 -208.923)" fill="#ec9b49" stroke="#ec9b49" stroke-width="0.5"/>
    <path id="Pfad_28" data-name="Pfad 28" d="M331.583,46.055a3.592,3.592,0,0,0-1.463,6.873L326.994,66.56a11.372,11.372,0,0,1-1.65,3.847,2.26,2.26,0,0,0-2.343.514l-2.366,2.324a2.257,2.257,0,1,0,3.164,3.221l2.366-2.324a2.261,2.261,0,0,0,.337-2.8,12.847,12.847,0,0,0,1.939-4.454L331.57,53.24h.013a3.593,3.593,0,0,0,0-7.185Zm-6.457,27.03-2.366,2.324a.774.774,0,0,1-1.085-1.105l2.366-2.324a.774.774,0,1,1,1.085,1.1Zm6.457-21.329-.087,0a1.882,1.882,0,0,0-.7-.152,2.109,2.109,0,1,1,.789.153Zm0,0" transform="translate(-288.95 -41.501)" fill="#ec9b49" stroke="#ec9b49" stroke-width="0.5"/>
    <path id="Pfad_29" data-name="Pfad 29" d="M37.535,422.625a2.711,2.711,0,1,0,2.711,2.712A2.714,2.714,0,0,0,37.535,422.625Zm0,3.939a1.228,1.228,0,1,1,1.228-1.228A1.229,1.229,0,0,1,37.535,426.564Zm0,0" transform="translate(-31.381 -381.463)" fill="#ec9b49" stroke="#ec9b49" stroke-width="0.5"/>
    <path id="Pfad_30" data-name="Pfad 30" d="M104.473,422.625a2.711,2.711,0,1,0,2.712,2.712A2.714,2.714,0,0,0,104.473,422.625Zm0,3.939a1.228,1.228,0,1,1,1.228-1.228A1.229,1.229,0,0,1,104.473,426.564Zm0,0" transform="translate(-91.839 -381.463)" fill="#ec9b49" stroke="#ec9b49" stroke-width="0.5"/>
    <path id="Pfad_31" data-name="Pfad 31" d="M100.416,77.5a.729.729,0,0,0-.473.917,17.11,17.11,0,1,1-16.3-11.908,16.923,16.923,0,0,1,7.78,1.867,17.263,17.263,0,0,1,5.919,4.991.729.729,0,0,0,1.167-.875,18.732,18.732,0,0,0-6.422-5.415,18.366,18.366,0,0,0-8.445-2.027,18.547,18.547,0,1,0,17.692,12.923A.73.73,0,0,0,100.416,77.5Zm0,0" transform="translate(-58.64 -58.622)" fill="#ec9b49" stroke="#ec9b49" stroke-width="0.5"/>
  </g>
</svg>
