<svg id="Komponente_14_1" data-name="Komponente 14 – 1" xmlns="http://www.w3.org/2000/svg" width="24" height="24" viewBox="0 0 24 24">
  <g id="Pfad_6" data-name="Pfad 6" fill="none">
    <path d="M12,24C5.548,19.208,2.164,14.849.776,11.2-2.942,1.422,7.677-3.254,12,2.518c4.323-5.772,14.942-1.1,11.224,8.682C21.836,14.849,18.452,19.208,12,24Z" stroke="none"/>
    <path d="M 12.00000476837158 20.20944023132324 C 17.41177368164062 15.85117053985596 19.57066345214844 12.36663913726807 20.42000389099121 10.13371276855469 C 21.25090408325195 7.948553085327148 21.19419479370117 6.074453353881836 20.25601387023926 4.714003086090088 C 19.52693557739258 3.656773090362549 18.28574562072754 3.000003099441528 17.01681518554688 3.000003099441528 C 16.27339553833008 3.000003099441528 15.21615505218506 3.228403091430664 14.40128517150879 4.316513061523438 L 12.00000476837158 7.52297306060791 L 9.598724365234375 4.316513061523438 C 8.783854484558105 3.228403091430664 7.726614952087402 3.000003099441528 6.983184814453125 3.000003099441528 C 5.714494705200195 3.000003099441528 4.473404884338379 3.65682315826416 3.744264841079712 4.714153289794922 C 2.805994749069214 6.074733257293701 2.749194860458374 7.948782920837402 3.579864740371704 10.13339328765869 C 4.429332733154297 12.36661815643311 6.588239669799805 15.85117530822754 12.00000476837158 20.20944023132324 M 12.00000476837158 24.00000381469727 C 5.547674655914307 19.20799255371094 2.163694858551025 14.84854316711426 0.7758647799491882 11.19996356964111 C -1.829887509346008 4.347063541412354 2.607378959655762 2.712097057155916e-06 6.983189582824707 2.712097057155916e-06 C 8.85080623626709 2.712097057155916e-06 10.70697116851807 0.7916197180747986 12.00000476837158 2.51822304725647 C 13.2927713394165 0.7919720411300659 15.14958477020264 2.712097057155916e-06 17.01681518554688 2.712097057155916e-06 C 21.39299583435059 2.712097057155916e-06 25.83012008666992 4.346467018127441 23.22413444519043 11.19996356964111 C 21.8363151550293 14.84854316711426 18.45232391357422 19.20799255371094 12.00000476837158 24.00000381469727 Z" stroke="none" fill="#dd755d"/>
  </g>
</svg>
