<svg id="Komponente_14_1" data-name="Komponente 14 – 1" xmlns="http://www.w3.org/2000/svg" width="24" height="24" viewBox="0 0 24 24">
  <g id="Pfad_6" data-name="Pfad 6" fill="#dd755d">
    <path d="M 12.00000381469727 22.11870765686035 C 6.932060241699219 18.20651054382324 3.545246839523315 14.26150798797607 2.177864789962769 10.666672706604 C 1.638054728507996 9.24703311920166 1.418904781341553 7.904443264007568 1.526554822921753 6.676383018493652 C 1.619074821472168 5.620842933654785 1.949764728546143 4.674153327941895 2.509414672851562 3.862593173980713 C 3.514384746551514 2.405293226242065 5.228634834289551 1.500003099441528 6.983184814453125 1.500003099441528 C 8.518135070800781 1.500003099441528 9.873414993286133 2.180933237075806 10.79936504364014 3.417373180389404 L 12.00000476837158 5.020603179931641 L 13.20064449310303 3.417363166809082 C 14.12659454345703 2.180933237075806 15.48186492919922 1.500003099441528 17.01681518554688 1.500003099441528 C 18.77160453796387 1.500003099441528 20.48595428466797 2.405233144760132 21.49085426330566 3.862443208694458 C 22.05047416687012 4.673933029174805 22.3811149597168 5.620593070983887 22.47359466552734 6.676133155822754 C 22.58120536804199 7.904212951660156 22.36199569702148 9.246883392333984 21.82207489013672 10.66684341430664 C 20.45475959777832 14.26150798797607 17.06795501708984 18.20649528503418 12.00000381469727 22.11870765686035 Z" stroke="none"/>
    <path d="M 12.00000476837158 20.20944023132324 C 17.41177368164062 15.85117053985596 19.57066345214844 12.36663913726807 20.42000389099121 10.13371276855469 C 21.25090408325195 7.948553085327148 21.19419479370117 6.074453353881836 20.25601387023926 4.714003086090088 C 19.52693557739258 3.656773090362549 18.28574562072754 3.000003099441528 17.01681518554688 3.000003099441528 C 16.27339553833008 3.000003099441528 15.21615505218506 3.228403091430664 14.40128517150879 4.316513061523438 L 12.00000476837158 7.52297306060791 L 9.598724365234375 4.316513061523438 C 8.783854484558105 3.228403091430664 7.726614952087402 3.000003099441528 6.983184814453125 3.000003099441528 C 5.714494705200195 3.000003099441528 4.473404884338379 3.65682315826416 3.744264841079712 4.714153289794922 C 2.805994749069214 6.074733257293701 2.749194860458374 7.948782920837402 3.579864740371704 10.13339328765869 C 4.429332733154297 12.36661815643311 6.588239669799805 15.85117530822754 12.00000476837158 20.20944023132324 M 12.00000476837158 24.00000381469727 C 5.547674655914307 19.20799255371094 2.163694858551025 14.84854316711426 0.7758647799491882 11.19996356964111 C -1.829887509346008 4.347063541412354 2.607378959655762 2.712097057155916e-06 6.983189582824707 2.712097057155916e-06 C 8.85080623626709 2.712097057155916e-06 10.70697116851807 0.7916197180747986 12.00000476837158 2.51822304725647 C 13.2927713394165 0.7919720411300659 15.14958477020264 2.712097057155916e-06 17.01681518554688 2.712097057155916e-06 C 21.39299583435059 2.712097057155916e-06 25.83012008666992 4.346467018127441 23.22413444519043 11.19996356964111 C 21.8363151550293 14.84854316711426 18.45232391357422 19.20799255371094 12.00000476837158 24.00000381469727 Z" stroke="none" fill="#dd755d"/>
  </g>
</svg>
