<svg xmlns="http://www.w3.org/2000/svg" width="50" height="50" viewBox="0 0 50 50">
  <g id="Pfad_89" data-name="Pfad 89" fill="none">
    <path d="M25,50C11.558,40.017,4.508,30.934,1.616,23.333-6.129,2.963,15.995-6.779,25,5.246,34.005-6.779,56.129,2.963,48.384,23.333,45.492,30.934,38.442,40.017,25,50Z" stroke="none"/>
    <path d="M 25.00000381469727 46.23889923095703 C 30.39735221862793 42.08147811889648 34.88704299926758 37.91299057006836 38.36411666870117 33.8286247253418 C 41.74385833740234 29.85860443115234 44.17150497436523 25.96860313415527 45.57949447631836 22.26700401306152 C 46.71109390258789 19.29098129272461 47.17036056518555 16.47513771057129 46.94451522827148 13.89769268035889 C 46.74992752075195 11.67684841156006 46.05381393432617 9.684426307678223 44.87552642822266 7.97579288482666 C 43.81314849853516 6.435259342193604 42.36342620849609 5.161392688751221 40.68307113647461 4.291893005371094 C 39.04973602294922 3.446726322174072 37.24076080322266 3.000004053115845 35.45169448852539 3.000004053115845 C 32.21354675292969 3.000004053115845 29.35452651977539 4.436392784118652 27.40128135681152 7.044581890106201 L 25.00000381469727 10.25104808807373 L 22.59872627258301 7.044581890106201 C 20.64548110961914 4.436392784118652 17.78645896911621 3.000004053115845 14.54831504821777 3.000004053115845 C 12.75953674316406 3.000004053115845 10.950758934021 3.446759462356567 9.317537307739258 4.291959762573242 C 7.637226104736328 5.161526203155518 6.187492847442627 6.435481548309326 5.125059604644775 7.976103782653809 C 3.946681499481201 9.684870719909668 3.250481605529785 11.67735958099365 3.055803775787354 13.89822578430176 C 2.829870462417603 16.47562599182129 3.289026021957397 19.29128265380859 4.420392513275146 22.26668167114258 C 5.828503608703613 25.96860313415527 8.256148338317871 29.85860443115234 11.63589286804199 33.8286247253418 C 15.11296558380127 37.91299057006836 19.6026554107666 42.08147811889648 25.00000381469727 46.23889923095703 M 25.00000381469727 50.00000381469727 C 11.55765914916992 40.01663589477539 4.507692813873291 30.9344596862793 1.616392731666565 23.33324813842773 C -3.812255859375 9.05638313293457 5.432053565979004 5.734591923101107e-06 14.54831981658936 5.734591923101107e-06 C 18.43918609619141 5.734591923101107e-06 22.30618858337402 1.649204969406128 25.00000381469727 5.246293067932129 C 27.69326972961426 1.649938941001892 31.56162643432617 5.734591923101107e-06 35.45169067382812 5.734591923101107e-06 C 44.56872940063477 5.734591923101107e-06 53.812744140625 9.055140495300293 48.38361358642578 23.33324813842773 C 45.49232482910156 30.9344596862793 38.44234848022461 40.01663589477539 25.00000381469727 50.00000381469727 Z" stroke="none" fill="#ec9b49"/>
  </g>
</svg>
