<svg xmlns="http://www.w3.org/2000/svg" width="50.598" height="50.56" viewBox="0 0 50.598 50.56">
  <g id="_001-guitar-music" data-name="001-guitar-music" transform="translate(0.252 0.31)">
    <g id="Gruppe_108" data-name="Gruppe 108" transform="translate(11.302 26.811)">
      <g id="Gruppe_107" data-name="Gruppe 107">
        <path id="Pfad_12" data-name="Pfad 12" d="M126.009,276.8a5.935,5.935,0,1,0,0,8.4A5.944,5.944,0,0,0,126.009,276.8Zm-1.054,7.343a4.445,4.445,0,1,1,0-6.289A4.452,4.452,0,0,1,124.955,284.14Z" transform="translate(-115.876 -275.061)" fill="#ec9b49" stroke="#ec9b49" stroke-width="0.5"/>
      </g>
    </g>
    <g id="Gruppe_110" data-name="Gruppe 110" transform="translate(4.757 35.346)">
      <g id="Gruppe_109" data-name="Gruppe 109">
        <path id="Pfad_13" data-name="Pfad 13" d="M57.462,369.412l-6.1-6.1a1.74,1.74,0,0,0-2.457,0l-.029.029a1.74,1.74,0,0,0,0,2.457l6.1,6.1a1.74,1.74,0,0,0,2.457,0l.029-.029a1.74,1.74,0,0,0,0-2.457Zm-1.054,1.4-.029.029a.25.25,0,0,1-.348,0l-6.1-6.1a.25.25,0,0,1,0-.348l.029-.029a.249.249,0,0,1,.348,0l6.1,6.1a.249.249,0,0,1,0,.348Z" transform="translate(-48.372 -362.808)" fill="#ec9b49" stroke="#ec9b49" stroke-width="0.5"/>
      </g>
    </g>
    <g id="Gruppe_112" data-name="Gruppe 112" transform="translate(13.56 29.082)">
      <g id="Gruppe_111" data-name="Gruppe 111">
        <path id="Pfad_14" data-name="Pfad 14" d="M145.168,299.162a3.67,3.67,0,1,0,0,5.19A3.646,3.646,0,0,0,145.168,299.162Zm-1.054,4.136a2.18,2.18,0,1,1,0-3.082A2.165,2.165,0,0,1,144.114,303.3Z" transform="translate(-138.903 -298.087)" fill="#ec9b49" stroke="#ec9b49" stroke-width="0.5"/>
      </g>
    </g>
    <g id="Gruppe_114" data-name="Gruppe 114">
      <g id="Gruppe_113" data-name="Gruppe 113">
        <path id="Pfad_15" data-name="Pfad 15" d="M49.818,9.037,48.436,7.655l.632-.526a.741.741,0,0,0,.05-1.093L47.53,4.447l-.022-.027a.722.722,0,0,0-.072-.067l-3.3-3.3a.741.741,0,0,0-1.093.05l-.526.632L41.185.4a.741.741,0,0,0-1.048,0L37.972,2.569a.741.741,0,0,0,0,1.048l1.622,1.622L37.043,8.3,24.352,20.036a9.667,9.667,0,0,0-2.483-.721.741.741,0,1,0-.215,1.466,8.035,8.035,0,0,1,1.492.37L21.575,22.6a.741.741,0,0,0-.021,1.068l4.764,4.764a.741.741,0,0,0,.524.217h.01a.74.74,0,0,0,.528-.231L28.917,26.8a7.309,7.309,0,0,1-1.544,7.858,8.345,8.345,0,0,1-2.731,1.891,3.93,3.93,0,0,0-2.34,3.128,10.487,10.487,0,0,1-3.024,6.2A9.293,9.293,0,0,1,12.6,48.705h-.034a10.993,10.993,0,0,1-7.754-3.458C.593,40.968.378,34.788,4.312,30.872A10.487,10.487,0,0,1,10.5,27.865a3.945,3.945,0,0,0,3.129-2.353A8.343,8.343,0,0,1,15.4,22.906a7.358,7.358,0,0,1,3.467-2,.741.741,0,1,0-.355-1.438,8.82,8.82,0,0,0-4.16,2.39,9.817,9.817,0,0,0-2.085,3.067,2.458,2.458,0,0,1-1.948,1.469,11.956,11.956,0,0,0-7.052,3.428A10.825,10.825,0,0,0,.01,38.077a12.615,12.615,0,0,0,3.747,8.21,12.461,12.461,0,0,0,8.8,3.9h.04a10.747,10.747,0,0,0,7.725-3.267,11.954,11.954,0,0,0,3.447-7.066,2.444,2.444,0,0,1,1.454-1.946,9.821,9.821,0,0,0,3.213-2.225,8.8,8.8,0,0,0,1.59-10.06l11.833-12.5,3.066-2.552L46.6,12.25a.741.741,0,0,0,1.048,0l2.166-2.166A.741.741,0,0,0,49.818,9.037ZM45.155,4.168l.736.736-5.814,5.358-.185-.185ZM39.543,3.093l1.118-1.118.9.9L40.545,4.1Zm3.592.206,0,0,.52-.624.448.448L38.843,9.027l-.259-.259ZM26.827,26.85l-3.681-3.681L37.562,9.841l1.924,1.924.023.028a.725.725,0,0,0,.072.068l.74.74ZM41.4,11.584l-.275-.275L46.94,5.952l.557.557Zm5.728-.9L46.072,9.622l1.221-1.016.954.954Z" transform="translate(0.002 -0.187)" fill="#ec9b49" stroke="#ec9b49" stroke-width="0.5"/>
      </g>
    </g>
    <g id="Gruppe_116" data-name="Gruppe 116" transform="translate(36.299 26.67)">
      <g id="Gruppe_115" data-name="Gruppe 115">
        <path id="Pfad_16" data-name="Pfad 16" d="M383.917,273.952a.745.745,0,0,0-.624-.15l-10.4,2.209a.745.745,0,0,0-.59.729v3.105a.745.745,0,1,0,1.491,0v-2.5l8.906-1.893V283a4.283,4.283,0,0,0-2.208-.592c-2.031,0-3.684,1.327-3.684,2.958s1.652,2.958,3.684,2.958a3.474,3.474,0,0,0,3.667-2.682.746.746,0,0,0,.032-.215V274.531A.746.746,0,0,0,383.917,273.952Zm-3.423,12.878c-1.189,0-2.193-.672-2.193-1.468s1-1.468,2.193-1.468,2.193.672,2.193,1.468S381.683,286.829,380.494,286.829Z" transform="translate(-372.306 -273.786)" fill="#ec9b49" stroke="#ec9b49" stroke-width="0.5"/>
      </g>
    </g>
    <g id="Gruppe_118" data-name="Gruppe 118" transform="translate(30.512 34.831)">
      <g id="Gruppe_117" data-name="Gruppe 117">
        <path id="Pfad_17" data-name="Pfad 17" d="M319.917,358.316a.745.745,0,1,0-1.491,0v3.445a4.287,4.287,0,0,0-2.193-.583c-2.031,0-3.684,1.327-3.684,2.958s1.652,2.958,3.684,2.958,3.684-1.327,3.684-2.958c0,0,0,0,0-.006s0,0,0,0Zm-3.684,7.288c-1.189,0-2.193-.672-2.193-1.468s1-1.468,2.193-1.468,2.193.672,2.193,1.468S317.422,365.6,316.234,365.6Z" transform="translate(-312.55 -357.571)" fill="#ec9b49" stroke="#ec9b49" stroke-width="0.5"/>
      </g>
    </g>
    <g id="Gruppe_120" data-name="Gruppe 120" transform="translate(13.538 1.272)">
      <g id="Gruppe_119" data-name="Gruppe 119">
        <path id="Pfad_18" data-name="Pfad 18" d="M145.79,13.293a.744.744,0,0,0-.608-.163l-4.709.826a.745.745,0,0,0,.258,1.468l3.835-.673v7.577a4.283,4.283,0,0,0-2.208-.592c-2.031,0-3.684,1.327-3.684,2.958s1.652,2.958,3.684,2.958a3.474,3.474,0,0,0,3.667-2.682.747.747,0,0,0,.032-.215V13.864A.745.745,0,0,0,145.79,13.293Zm-3.433,12.869c-1.189,0-2.193-.672-2.193-1.468s1-1.468,2.193-1.468,2.193.672,2.193,1.468S143.546,26.162,142.358,26.162Z" transform="translate(-138.674 -13.119)" fill="#ec9b49" stroke="#ec9b49" stroke-width="0.5"/>
      </g>
    </g>
    <g id="Gruppe_122" data-name="Gruppe 122" transform="translate(3.256 3.059)">
      <g id="Gruppe_121" data-name="Gruppe 121">
        <path id="Pfad_19" data-name="Pfad 19" d="M42.449,31.878a.745.745,0,0,0-.884-.574l-1.988.422a.745.745,0,0,0-.59.729v9.475a4.286,4.286,0,0,0-2.193-.583c-2.031,0-3.684,1.327-3.684,2.958s1.652,2.958,3.684,2.958,3.684-1.327,3.684-2.958c0,0,0,0,0-.006s0,0,0,0V33.059l1.4-.3A.745.745,0,0,0,42.449,31.878Zm-5.655,13.9c-1.189,0-2.193-.672-2.193-1.468s1-1.468,2.193-1.468,2.193.672,2.193,1.468S37.982,45.774,36.794,45.774Z" transform="translate(-33.11 -31.288)" fill="#ec9b49" stroke="#ec9b49" stroke-width="0.5"/>
      </g>
    </g>
  </g>
</svg>
