<svg xmlns="http://www.w3.org/2000/svg" width="60.199" height="60.448" viewBox="0 0 60.199 60.448">
  <g id="Komponente_17_1" data-name="Komponente 17 – 1" transform="translate(0.25 0.25)" style="isolation: isolate">
    <g id="_002-jazz" data-name="002-jazz">
      <g id="Gruppe_124" data-name="Gruppe 124" transform="translate(4.808 5.833)">
        <g id="Gruppe_123" data-name="Gruppe 123">
          <path id="Pfad_20" data-name="Pfad 20" d="M102.564,58.684a3.016,3.016,0,0,0-2.836-.291l-5.715,2.342a1.209,1.209,0,0,1-.46.091H87.04a5.564,5.564,0,0,0-5.548,5.567v2.648A2.253,2.253,0,0,0,81.045,69h-.387a2.266,2.266,0,0,0-2.26,2.268v2.724a2.266,2.266,0,0,0,2.26,2.268h.387a2.252,2.252,0,0,0,.447-.045v.8a2.254,2.254,0,0,0-.447-.045h-.387a2.266,2.266,0,0,0-2.26,2.268v2.724a2.266,2.266,0,0,0,2.26,2.268h.387a2.253,2.253,0,0,0,.447-.045v.8a2.253,2.253,0,0,0-.447-.045h-.387a2.266,2.266,0,0,0-2.26,2.268v2.724a2.266,2.266,0,0,0,2.26,2.268h.387a2.252,2.252,0,0,0,.447-.045v3.1a3.862,3.862,0,1,1-7.724,0V79.056a8.676,8.676,0,0,0-.791-3.606L68.84,66.474l1.246-1.25a2.364,2.364,0,0,0,0-3.33L69.8,61.6a2.344,2.344,0,0,0-3.318,0l-5.6,5.615A.908.908,0,0,0,62.163,68.5l5.6-5.615a.539.539,0,0,1,.754,0l.291.292a.541.541,0,0,1,0,.757L52.028,80.772a.536.536,0,0,1-.754,0l-.291-.292a.541.541,0,0,1,0-.757l8.312-8.341A.908.908,0,0,0,58.013,70.1L49.7,78.436a2.364,2.364,0,0,0,0,3.33l.291.292a2.345,2.345,0,0,0,3.318,0l1.014-1.017,4.21,4.225a6.739,6.739,0,0,1,1.977,4.788v8.439a13.741,13.741,0,1,0,27.481,0V78.668a.907.907,0,1,0-1.813,0V98.493a11.927,11.927,0,1,1-23.855,0V90.054a8.551,8.551,0,0,0-2.508-6.075l-4.174-4.189L67.5,67.894l3.834,8.32a6.839,6.839,0,0,1,.623,2.842V95.24a5.675,5.675,0,1,0,11.35,0V66.393a3.746,3.746,0,0,1,3.735-3.748h6.21l.83,2.264h-4.95a2.959,2.959,0,0,0-2.95,2.961v6.48a.907.907,0,1,0,1.813,0V67.87a1.141,1.141,0,0,1,1.137-1.141h5.815a3.023,3.023,0,0,0,.575-.055h0a3.02,3.02,0,0,0,.589-.178l5.93-2.479a3.046,3.046,0,0,0,.524-5.331ZM81.492,89.918a.454.454,0,0,1-.447.448h-.387a.454.454,0,0,1-.447-.448V87.194a.454.454,0,0,1,.447-.448h.387a.454.454,0,0,1,.447.448Zm0-7.965a.453.453,0,0,1-.447.448h-.387a.454.454,0,0,1-.447-.448V79.229a.454.454,0,0,1,.447-.448h.387a.454.454,0,0,1,.447.448Zm0-7.965a.453.453,0,0,1-.447.448h-.387a.454.454,0,0,1-.447-.448V71.264a.454.454,0,0,1,.447-.448h.387a.454.454,0,0,1,.447.448Zm19.851-11.652L95.9,64.611l-.855-2.333,5.368-2.2a1.218,1.218,0,0,1,1.678,1.131A1.219,1.219,0,0,1,101.343,62.336Z" transform="translate(-49.015 -58.166)" fill="#ec9b49" stroke="#ec9b49" stroke-width="0.5"/>
        </g>
      </g>
      <g id="Gruppe_126" data-name="Gruppe 126" transform="translate(0 6.596)">
        <g id="Gruppe_125" data-name="Gruppe 125">
          <path id="Pfad_21" data-name="Pfad 21" d="M11.1,66.543a.765.765,0,0,0-.949-.743L4.82,67.122a.765.765,0,0,0-.581.743v5.528a2.95,2.95,0,0,0-.822-.114,1.933,1.933,0,1,0,0,3.773,2.135,2.135,0,0,0,2.352-1.887v-6.7l3.806-.943v4.724a2.946,2.946,0,0,0-.822-.114,1.933,1.933,0,1,0,0,3.773A2.135,2.135,0,0,0,11.1,74.016q0-.052,0-.1c0-.023,0-.046,0-.069ZM3.416,75.522c-.531,0-.822-.268-.822-.357s.292-.357.822-.357.822.268.822.357S3.947,75.522,3.416,75.522Zm5.336-1.149c-.531,0-.822-.268-.822-.357s.292-.357.822-.357.822.268.822.357S9.283,74.373,8.752,74.373Z" transform="translate(-1.064 -65.778)" fill="#ec9b49" stroke="#ec9b49" stroke-width="0.5"/>
        </g>
      </g>
      <g id="Gruppe_128" data-name="Gruppe 128" transform="translate(13.848)">
        <g id="Gruppe_127" data-name="Gruppe 127">
          <path id="Pfad_22" data-name="Pfad 22" d="M121.583,0a.765.765,0,0,0-.765.765V6.293A2.95,2.95,0,0,0,120,6.179a2.135,2.135,0,0,0-2.352,1.887,2.41,2.41,0,0,0,4.7,0V.765A.765.765,0,0,0,121.583,0ZM120,8.422c-.53,0-.822-.268-.822-.357s.292-.357.822-.357.822.268.822.357S120.527,8.422,120,8.422Z" transform="translate(-117.644)" fill="#ec9b49" stroke="#ec9b49" stroke-width="0.5"/>
        </g>
      </g>
    </g>
  </g>
</svg>
