<svg xmlns="http://www.w3.org/2000/svg" width="190.247" height="124.238" viewBox="0 0 190.247 124.238">
  <g id="SplashLogo" transform="translate(3.907 1.547)">
    <g id="Gruppe_79" data-name="Gruppe 79" transform="translate(23.096)">
      <path id="Pfad_5" data-name="Pfad 5" d="M80.783,14.891,69.228,42.74H56.884l-.593-15.7-6.32,15.7H37.626L36,14.891H46.86l-.642,16.937,6.567-16.937h11.7l.79,17.134L70.66,14.891ZM79.153,28.815a20.8,20.8,0,0,1,2.864-7.629A14.866,14.866,0,0,1,87,16.248a12.037,12.037,0,0,1,6.172-1.7,8.342,8.342,0,0,1,4.493,1.111,5.814,5.814,0,0,1,2.469,3.037l.691-3.8h10.913L106.8,42.74H95.892l.691-3.8a9.792,9.792,0,0,1-3.555,3.037,10.581,10.581,0,0,1-4.888,1.111,8.721,8.721,0,0,1-6.765-2.815q-2.568-2.815-2.568-7.8A19.1,19.1,0,0,1,79.153,28.815Zm19.208,0a5.68,5.68,0,0,0,.1-1.185,3.564,3.564,0,0,0-.889-2.592,3.22,3.22,0,0,0-2.42-.913,4.522,4.522,0,0,0-3.136,1.234,5.9,5.9,0,0,0-1.753,3.456,5.679,5.679,0,0,0-.1,1.185,3.564,3.564,0,0,0,.889,2.592,3.22,3.22,0,0,0,2.42.913,4.522,4.522,0,0,0,3.136-1.234A5.9,5.9,0,0,0,98.361,28.815ZM129.173,6.2,122.7,42.74H111.743L118.211,6.2Zm21.183,22.714,8.2,13.826H145.468l-4.888-11.11L138.6,42.74H127.642L134.111,6.2h10.962l-3.407,19.159L150.5,14.891h12.74ZM31.454,73.5A2.077,2.077,0,0,0,31.4,74q0,1.383,1.778,1.383H35.8L34.12,84.711H29.973q-9.727,0-9.727-8.246a18.227,18.227,0,0,1,.3-3.16L21.825,66H18.369L20,56.862h3.456l1.185-6.715H35.6l-1.185,6.715h4.543L37.33,66H32.787ZM62.76,56.664a8.061,8.061,0,0,1,6.222,2.345,9.115,9.115,0,0,1,2.173,6.444,17.4,17.4,0,0,1-.3,3.111L67.994,84.711H57.081L59.7,69.947a10.513,10.513,0,0,0,.1-1.086,3.152,3.152,0,0,0-.864-2.37,3.292,3.292,0,0,0-2.395-.839A4.263,4.263,0,0,0,53.5,66.787a5.686,5.686,0,0,0-1.6,3.16V69.9L49.279,84.711H38.317l6.469-36.54H55.748L53.476,61.059a12.46,12.46,0,0,1,4-3.185A11.452,11.452,0,0,1,62.76,56.664Zm27.7-.148q5.53,0,8.789,2.938a10.259,10.259,0,0,1,3.259,8.024,17.158,17.158,0,0,1-.3,3.061,19.715,19.715,0,0,1-.543,2.173H84.091a5.435,5.435,0,0,0-.049.839q0,2.765,2.37,2.765a3.229,3.229,0,0,0,2.864-1.629h11.6A14.666,14.666,0,0,1,97.472,80a17.215,17.215,0,0,1-5.456,3.7,16.413,16.413,0,0,1-6.592,1.358q-5.53,0-8.765-2.938a10.481,10.481,0,0,1-3.234-8.172,17.657,17.657,0,0,1,.3-3.16,18.1,18.1,0,0,1,3.16-7.58,15.884,15.884,0,0,1,5.9-4.963A17.227,17.227,0,0,1,90.461,56.516Zm1.037,11.7a4.09,4.09,0,0,0,.049-.741,2.14,2.14,0,0,0-.741-1.778,2.909,2.909,0,0,0-1.876-.593,3.98,3.98,0,0,0-4,3.111ZM17.43,90.143l-6.469,36.54H0l6.469-36.54Zm9.332,6.469a6.033,6.033,0,0,1-4.024-1.234,4.009,4.009,0,0,1-1.457-3.21,5.886,5.886,0,0,1,.938-3.21,6.553,6.553,0,0,1,2.642-2.345,8.229,8.229,0,0,1,3.777-.864,5.875,5.875,0,0,1,3.975,1.259,4.134,4.134,0,0,1,1.457,3.284,5.647,5.647,0,0,1-.938,3.16,6.731,6.731,0,0,1-2.617,2.3A8.078,8.078,0,0,1,26.763,96.611ZM31.8,98.833l-4.938,27.849H15.9l4.938-27.849Zm24.442-.2a8.061,8.061,0,0,1,6.222,2.345,9.115,9.115,0,0,1,2.173,6.444,17.4,17.4,0,0,1-.3,3.111l-2.864,16.147H50.563l2.617-14.764a10.512,10.512,0,0,0,.1-1.086,3.152,3.152,0,0,0-.864-2.37,3.292,3.292,0,0,0-2.395-.839,4.286,4.286,0,0,0-3.012,1.136,5.57,5.57,0,0,0-1.629,3.111l-2.617,14.813H31.8l4.938-27.849H47.7l-.741,4.2a12.46,12.46,0,0,1,4-3.185A11.452,11.452,0,0,1,56.242,98.636Zm27.7-.148q5.53,0,8.789,2.938a10.259,10.259,0,0,1,3.259,8.024,17.158,17.158,0,0,1-.3,3.061,19.717,19.717,0,0,1-.543,2.173H77.573a5.434,5.434,0,0,0-.049.839q0,2.765,2.37,2.765a3.229,3.229,0,0,0,2.864-1.629h11.6a14.665,14.665,0,0,1-3.407,5.308,17.216,17.216,0,0,1-5.456,3.7,16.414,16.414,0,0,1-6.592,1.358q-5.53,0-8.765-2.938a10.481,10.481,0,0,1-3.234-8.172,17.657,17.657,0,0,1,.3-3.16,18.1,18.1,0,0,1,3.16-7.58,15.885,15.885,0,0,1,5.9-4.962A17.227,17.227,0,0,1,83.943,98.488Zm1.037,11.7a4.09,4.09,0,0,0,.049-.741,2.14,2.14,0,0,0-.741-1.778,2.909,2.909,0,0,0-1.876-.593,3.979,3.979,0,0,0-4,3.111Z" transform="translate(0 -6.2)" fill="#ffffff"/>
    </g>
    <line id="Linie_1" data-name="Linie 1" y1="116.423" x2="47.199" transform="translate(0 2.36)" fill="none" stroke="#ffffff" stroke-linecap="round" stroke-width="6"/>
  </g>
</svg>
