<svg id="Capa_1" enable-background="new 0 0 512 512"  viewBox="0 0 512 512" xmlns="http://www.w3.org/2000/svg" fill="#fff" ><g><path d="m256 512c-49.957 0-98.415-14.492-140.136-41.91-40.642-26.709-72.765-64.132-92.896-108.225-1.72-3.768-.06-8.217 3.708-9.938 3.766-1.72 8.217-.061 9.938 3.708 18.957 41.521 49.209 76.764 87.489 101.92 39.266 25.805 84.876 39.445 131.897 39.445 64.372 0 124.893-25.069 170.412-70.588 44.124-44.125 69.032-102.343 70.518-164.504-14.935 27.032-36.552 49.879-62.828 66.328-28.815 18.039-62.103 27.574-96.262 27.574-100.162 0-181.65-81.488-181.65-181.65 0-34.159 9.535-67.446 27.574-96.262 16.448-26.274 39.294-47.891 66.328-62.827-62.161 1.485-120.379 26.393-164.504 70.518-45.519 45.519-70.588 106.039-70.588 170.411 0 24.799 3.784 49.278 11.248 72.758 1.255 3.948-.928 8.165-4.875 9.419-3.949 1.255-8.165-.928-9.419-4.875-7.933-24.951-11.954-50.959-11.954-77.302 0-68.379 26.629-132.666 74.981-181.018 48.353-48.353 112.64-74.982 181.019-74.982h.27c6.352.01 11.606 4.164 13.085 10.336 1.486 6.198-1.324 12.307-6.994 15.203-27.004 13.743-49.783 34.599-65.883 60.318-16.544 26.427-25.289 56.962-25.289 88.303 0 91.891 74.759 166.65 166.65 166.65 31.341 0 61.875-8.745 88.303-25.288 25.719-16.1 46.574-38.879 60.313-65.873 2.896-5.679 9.008-8.492 15.201-7.01 6.177 1.479 10.334 6.735 10.344 13.08v.281c0 68.379-26.629 132.666-74.981 181.018-48.353 48.353-112.64 74.982-181.019 74.982z"/><g><path d="m416.485 213.655c-9.977 0-18.114-6.546-20.252-16.288l-9.81-44.792c-.476-2.184-2.191-3.9-4.374-4.379l-44.784-9.809c-9.739-2.129-16.287-10.261-16.291-20.235-.003-9.979 6.543-18.119 16.289-20.257l44.792-9.811c2.177-.479 3.893-2.191 4.367-4.362l9.811-44.796c2.137-9.749 10.275-16.298 20.252-16.298 9.976 0 18.114 6.549 20.251 16.297l9.81 44.791c.476 2.176 2.191 3.89 4.374 4.369l44.784 9.809c9.748 2.138 16.294 10.279 16.291 20.258-.004 9.974-6.552 18.106-16.294 20.236l-19.627 4.299c-4.042.887-8.044-1.676-8.931-5.721-.887-4.046 1.675-8.045 5.722-8.931l19.63-4.3c4.174-.912 4.499-4.508 4.5-5.588 0-1.082-.323-4.684-4.502-5.6l-44.788-9.81c-7.889-1.734-14.093-7.941-15.813-15.816l-9.809-44.786c-.917-4.182-4.518-4.507-5.599-4.507-1.082 0-4.683.325-5.6 4.508l-9.81 44.789c-1.717 7.869-7.922 14.078-15.806 15.811l-44.796 9.811c-4.177.916-4.5 4.518-4.5 5.6.001 1.08.326 4.675 4.497 5.587l44.793 9.811c7.893 1.735 14.098 7.948 15.813 15.831l9.808 44.781c.916 4.175 4.518 4.5 5.6 4.5 1.081 0 4.683-.325 5.599-4.502l9.81-44.788c1.214-5.576 4.723-10.45 9.625-13.363 3.561-2.115 8.164-.944 10.278 2.617 2.116 3.561.944 8.163-2.616 10.279-1.339.795-2.299 2.132-2.633 3.667l-9.812 44.8c-2.134 9.742-10.273 16.288-20.249 16.288z"/></g><g><path d="m283.727 263.499c-8.411 0-15.271-5.521-17.071-13.737l-7.399-33.781c-.206-.941-.948-1.683-1.891-1.889l-33.78-7.399c-8.216-1.8-13.737-8.66-13.737-17.072 0-8.411 5.521-15.272 13.737-17.072l33.781-7.4c.941-.206 1.684-.948 1.89-1.89l7.399-33.78c1.8-8.217 8.66-13.737 17.071-13.737s15.271 5.521 17.071 13.737l7.4 33.781c.206.942.947 1.683 1.889 1.889l33.781 7.399c8.217 1.8 13.737 8.661 13.737 17.072s-5.521 15.272-13.737 17.072l-33.781 7.4c-.941.206-1.683.947-1.889 1.888l-7.4 33.782c-1.8 8.217-8.66 13.737-17.071 13.737zm0-132.757c-1.322 0-2.136.655-2.419 1.947l-7.399 33.781c-1.456 6.645-6.689 11.877-13.333 13.333l-33.78 7.399c-1.292.283-1.947 1.097-1.947 2.419 0 1.323.655 2.136 1.947 2.419l33.78 7.399c6.644 1.456 11.877 6.688 13.333 13.332l7.399 33.782c.283 1.292 1.097 1.947 2.419 1.947s2.136-.655 2.419-1.947l7.4-33.781c1.454-6.643 6.688-11.876 13.331-13.332l33.782-7.4c1.291-.283 1.946-1.097 1.946-2.419s-.655-2.136-1.946-2.419l-33.781-7.399c-6.645-1.455-11.878-6.689-13.332-13.333l-7.4-33.78c-.284-1.293-1.097-1.948-2.419-1.948z"/></g></g></svg>