<svg xmlns="http://www.w3.org/2000/svg" width="51.286" height="51.312" viewBox="0 0 51.286 51.312">
  <g id="_004-suche" data-name="004-suche" transform="translate(0.25 0.25)">
    <g id="Gruppe_130" data-name="Gruppe 130" transform="translate(4.344 4.291)">
      <g id="Gruppe_129" data-name="Gruppe 129">
        <path id="Pfad_32" data-name="Pfad 32" d="M70.2,47.752a15.388,15.388,0,0,0-4.035-2.906.762.762,0,0,0-.678,1.364,13.877,13.877,0,1,1-10.425-.785,14.013,14.013,0,0,1,6.3-.51.762.762,0,1,0,.224-1.507,15.385,15.385,0,0,0-13.171,4.344,15.406,15.406,0,1,0,21.787,0Z" transform="translate(-43.905 -43.241)" fill="#ec9b49" stroke="#ec9b49" stroke-width="0.5"/>
      </g>
    </g>
    <g id="Gruppe_132" data-name="Gruppe 132">
      <g id="Gruppe_131" data-name="Gruppe 131">
        <path id="Pfad_33" data-name="Pfad 33" d="M49.713,43.8,36.385,30.469A19.741,19.741,0,0,0,19.842,0h0A19.728,19.728,0,1,0,30.572,36.282L43.9,49.61A4.11,4.11,0,0,0,49.713,43.8Zm-1.077,4.736a2.59,2.59,0,0,1-3.659,0L31.206,34.761a.762.762,0,0,0-.974-.086A18.2,18.2,0,1,1,19.839,1.523h0a18.212,18.212,0,0,1,14.95,28.586,33.2,33.2,0,0,1-2.646,2.958.762.762,0,0,0,1,1.151A27.3,27.3,0,0,0,35.458,31.7L48.636,44.874A2.59,2.59,0,0,1,48.636,48.533Z" transform="translate(-0.129)" fill="#ec9b49" stroke="#ec9b49" stroke-width="0.5"/>
      </g>
    </g>
  </g>
</svg>
