<svg id="Komponente_18_1" data-name="Komponente 18 – 1" xmlns="http://www.w3.org/2000/svg" width="35" height="25" viewBox="0 0 35 25">
  <g id="Vereinigungsmenge_2" data-name="Vereinigungsmenge 2" fill="none">
    <path d="M12,25v-.01A12.5,12.5,0,0,1,12,.01V0H24V.089a12.5,12.5,0,0,1,0,24.822V25Z" stroke="none"/>
    <path d="M 23.19544410705566 24.00020027160645 L 23.88154029846191 23.91814041137695 C 29.65005874633789 23.22817993164062 34.00009918212891 18.31949043273926 34.00009918212891 12.50010013580322 C 34.00009918212891 6.680700302124023 29.65005874633789 1.772010087966919 23.88154029846191 1.082050085067749 L 23.19552612304688 1.00000011920929 L 22.5 1.00000011920929 L 12.50009918212891 1.00000011920929 L 12.27001953125 1.00000011920929 L 12.03905963897705 1.009100079536438 C 9.065279960632324 1.126240134239197 6.287709712982178 2.37358021736145 4.218029499053955 4.521359920501709 C 2.142849683761597 6.674839973449707 0.9999995827674866 9.508410453796387 0.9999995827674866 12.50010013580322 C 0.9999995827674866 15.49178981781006 2.142849683761597 18.32535934448242 4.218029499053955 20.47883033752441 C 6.287709712982178 22.62660980224609 9.065279960632324 23.87395095825195 12.03905963897705 23.99109077453613 L 12.27027320861816 24.00020027160645 L 23.19544410705566 24.00020027160645 M 24.00029945373535 25.00020027160645 L 11.99969959259033 25.00020027160645 L 11.99969959259033 24.99032020568848 C 5.327969551086426 24.72751045227051 -4.089355343239731e-07 19.23628997802734 -4.089355343239731e-07 12.50010013580322 C -4.089355343239731e-07 5.763910293579102 5.327969551086426 0.2726801335811615 11.99969959259033 0.0098701361566782 L 11.99969959259033 1.358032193365943e-07 L 12.50009918212891 1.358032193365943e-07 L 22.5 1.358032193365943e-07 L 24.00029945373535 1.358032193365943e-07 L 24.00029945373535 0.08913013339042664 C 30.19673919677734 0.8302701115608215 35.00009918212891 6.103960037231445 35.00009918212891 12.50010013580322 C 35.00009918212891 18.896240234375 30.19673919677734 24.16991996765137 24.00029945373535 24.91106033325195 L 24.00029945373535 25.00020027160645 Z" stroke="none" fill="#fff"/>
  </g>
  <circle id="Ellipse_15" data-name="Ellipse 15" cx="10.5" cy="10.5" r="10.5" transform="translate(12 2)" fill="#fff"/>
</svg>
