<svg xmlns="http://www.w3.org/2000/svg" width="35" height="35" viewBox="0 0 35 35">
  <g id="night-mode" transform="translate(0 0)">
    <path id="Pfad_92" data-name="Pfad 92" d="M17.5,35a17.4,17.4,0,0,1-9.58-2.865,17.585,17.585,0,0,1-6.35-7.4.513.513,0,1,1,.933-.426,16.56,16.56,0,0,0,5.981,6.967A16.468,16.468,0,0,0,33.97,17.9,12.419,12.419,0,1,1,17.1,1.03a16.474,16.474,0,0,0-15.3,21.443.513.513,0,0,1-.977.311A17.5,17.5,0,0,1,17.5,0h.018a.907.907,0,0,1,.894.707.911.911,0,0,1-.478,1.039,11.394,11.394,0,1,0,15.319,15.32A.923.923,0,0,1,35,17.481V17.5A17.5,17.5,0,0,1,17.5,35Z" fill="#fff"/>
    <g id="Gruppe_203" data-name="Gruppe 203" transform="translate(21.942 1.547)">
      <path id="Pfad_93" data-name="Pfad 93" d="M327.5,35.687a1.391,1.391,0,0,1-1.384-1.113l-.671-3.062a.393.393,0,0,0-.3-.3l-3.061-.671a1.417,1.417,0,0,1,0-2.768l3.062-.671a.392.392,0,0,0,.3-.3l.671-3.062a1.417,1.417,0,0,1,2.769,0l.671,3.062a.393.393,0,0,0,.3.3l3.061.671a1.417,1.417,0,0,1,0,2.768l-1.342.294a.513.513,0,1,1-.219-1l1.342-.294a.391.391,0,0,0,0-.765l-3.062-.671a1.421,1.421,0,0,1-1.081-1.081l-.671-3.062a.392.392,0,0,0-.766,0l-.671,3.062a1.421,1.421,0,0,1-1.081,1.081l-3.062.671a.391.391,0,0,0,0,.765l3.062.671a1.421,1.421,0,0,1,1.081,1.082l.67,3.061a.392.392,0,0,0,.766,0l.671-3.062a1.417,1.417,0,0,1,.658-.913.513.513,0,0,1,.524.882.388.388,0,0,0-.18.251l-.671,3.063A1.391,1.391,0,0,1,327.5,35.687Z" transform="translate(-320.974 -22.628)" fill="#fff"/>
    </g>
    <g id="Gruppe_204" data-name="Gruppe 204" transform="translate(14.345 7.912)">
      <path id="Pfad_94" data-name="Pfad 94" d="M214.9,125.843a1.173,1.173,0,0,1-1.167-.939l-.506-2.309a.17.17,0,0,0-.129-.129l-2.309-.506a1.195,1.195,0,0,1,0-2.334l2.309-.506a.17.17,0,0,0,.129-.129l.506-2.309a1.195,1.195,0,0,1,2.334,0l.506,2.309a.17.17,0,0,0,.129.129l2.309.506a1.195,1.195,0,0,1,0,2.334l-2.309.506a.17.17,0,0,0-.129.129l-.506,2.309a1.173,1.173,0,0,1-1.167.939Zm0-9.075a.154.154,0,0,0-.165.133l-.506,2.309a1.2,1.2,0,0,1-.911.911l-2.309.506a.169.169,0,0,0,0,.331l2.309.506a1.2,1.2,0,0,1,.911.911l.506,2.309a.169.169,0,0,0,.331,0l.506-2.309a1.2,1.2,0,0,1,.911-.911l2.309-.506a.169.169,0,0,0,0-.331l-2.309-.506a1.2,1.2,0,0,1-.911-.911l-.506-2.309a.154.154,0,0,0-.165-.133Z" transform="translate(-209.849 -115.742)" fill="#fff"/>
    </g>
  </g>
</svg>
