<svg xmlns="http://www.w3.org/2000/svg" width="62.385" height="62.385" viewBox="0 0 62.385 62.385">
  <g id="_005-ziel" data-name="005-ziel" transform="translate(0.25 0.25)">
    <path id="Pfad_34" data-name="Pfad 34" d="M11.429,239.17a1.038,1.038,0,0,0,.81-.39c.437-.54,10.619-13.317,10.619-19.351a11.429,11.429,0,1,0-22.858,0c0,6.035,10.182,18.806,10.619,19.351A1.038,1.038,0,0,0,11.429,239.17Zm0-29.092a9.361,9.361,0,0,1,9.351,9.351c0,4.031-6.142,12.846-9.351,17.018-3.209-4.17-9.351-12.984-9.351-17.018A9.361,9.361,0,0,1,11.429,210.078Zm0,0" transform="translate(0 -181.44)" fill="#ec9b49" stroke="#ec9b49" stroke-width="0.5"/>
    <path id="Pfad_35" data-name="Pfad 35" d="M64.312,260.156a4.156,4.156,0,1,0-4.156,4.156A4.156,4.156,0,0,0,64.312,260.156Zm-6.234,0a2.078,2.078,0,1,1,2.078,2.078A2.078,2.078,0,0,1,58.078,260.156Zm0,0" transform="translate(-48.727 -223.032)" fill="#ec9b49" stroke="#ec9b49" stroke-width="0.5"/>
    <path id="Pfad_36" data-name="Pfad 36" d="M360.312,21.819a1.037,1.037,0,0,0,.787-.362c.771-.894,7.525-8.866,7.525-13.145a8.312,8.312,0,1,0-16.624,0c0,4.279,6.754,12.251,7.525,13.145A1.037,1.037,0,0,0,360.312,21.819Zm0-19.741a6.24,6.24,0,0,1,6.234,6.234c0,2.633-3.967,8.058-6.234,10.846-2.268-2.788-6.234-8.208-6.234-10.846A6.24,6.24,0,0,1,360.312,2.078Zm0,0" transform="translate(-306.739)" fill="#ec9b49" stroke="#ec9b49" stroke-width="0.5"/>
    <path id="Pfad_37" data-name="Pfad 37" d="M398.234,35.117a3.117,3.117,0,1,0-3.117,3.117A3.117,3.117,0,0,0,398.234,35.117Zm-4.156,0a1.039,1.039,0,1,1,1.039,1.039A1.039,1.039,0,0,1,394.078,35.117Zm0,0" transform="translate(-341.544 -27.844)" fill="#ec9b49" stroke="#ec9b49" stroke-width="0.5"/>
    <path id="Pfad_38" data-name="Pfad 38" d="M401.039,186.078h1.039a1.039,1.039,0,0,0,0-2.078h-1.039a1.039,1.039,0,1,0,0,2.078Zm0,0" transform="translate(-348.505 -160.283)" fill="#ec9b49" stroke="#ec9b49" stroke-width="0.5"/>
    <path id="Pfad_39" data-name="Pfad 39" d="M296.984,234.078h2.1a1.039,1.039,0,0,0,0-2.078h-2.118a1.032,1.032,0,0,0-1.03,1.039A1.046,1.046,0,0,0,296.984,234.078Zm0,0" transform="translate(-257.803 -202.096)" fill="#ec9b49" stroke="#ec9b49" stroke-width="0.5"/>
    <path id="Pfad_40" data-name="Pfad 40" d="M393.688,233.039a1.039,1.039,0,0,0,1.039,1.039h2.117a1.039,1.039,0,1,0,0-2.078h-2.117A1.039,1.039,0,0,0,393.688,233.039Zm0,0" transform="translate(-343.012 -202.096)" fill="#ec9b49" stroke="#ec9b49" stroke-width="0.5"/>
    <path id="Pfad_41" data-name="Pfad 41" d="M352.137,186.078h2.117a1.039,1.039,0,1,0,0-2.078h-2.117a1.039,1.039,0,1,0,0,2.078Zm0,0" transform="translate(-305.855 -160.283)" fill="#ec9b49" stroke="#ec9b49" stroke-width="0.5"/>
    <path id="Pfad_42" data-name="Pfad 42" d="M124.571,464h-2.118a1.039,1.039,0,0,0,0,2.078h2.118a1.039,1.039,0,0,0,0-2.078Zm0,0" transform="translate(-105.769 -404.193)" fill="#ec9b49" stroke="#ec9b49" stroke-width="0.5"/>
    <path id="Pfad_43" data-name="Pfad 43" d="M273.1,201.228a1.02,1.02,0,0,0,.215-.023,1.039,1.039,0,0,0,.8-1.229,2.161,2.161,0,0,1-.045-.431,2.077,2.077,0,0,1,.226-.946,1.039,1.039,0,0,0-1.852-.942,4.156,4.156,0,0,0-.363,2.743A1.04,1.04,0,0,0,273.1,201.228Zm0,0" transform="translate(-236.941 -171.692)" fill="#ec9b49" stroke="#ec9b49" stroke-width="0.5"/>
    <path id="Pfad_44" data-name="Pfad 44" d="M345.84,234.078h2.118a1.039,1.039,0,0,0,0-2.078H345.84a1.039,1.039,0,0,0,0,2.078Zm0,0" transform="translate(-300.37 -202.096)" fill="#ec9b49" stroke="#ec9b49" stroke-width="0.5"/>
    <path id="Pfad_45" data-name="Pfad 45" d="M303.23,186.078h2.118a1.039,1.039,0,0,0,0-2.078H303.23a1.039,1.039,0,1,0,0,2.078Zm0,0" transform="translate(-263.251 -160.283)" fill="#ec9b49" stroke="#ec9b49" stroke-width="0.5"/>
    <path id="Pfad_46" data-name="Pfad 46" d="M225.858,312.639a1.007,1.007,0,0,0,.252.031,1.04,1.04,0,0,0,1.007-.788,3.666,3.666,0,0,1,.741-1.454,1.039,1.039,0,1,0-1.59-1.336,5.724,5.724,0,0,0-1.166,2.286,1.039,1.039,0,0,0,.756,1.261Zm0,0" transform="translate(-196.063 -268.921)" fill="#ec9b49" stroke="#ec9b49" stroke-width="0.5"/>
    <path id="Pfad_47" data-name="Pfad 47" d="M368.95,463.606a5.057,5.057,0,0,1-.673.044h-1.308a1.039,1.039,0,1,0,0,2.078h1.308a7.29,7.29,0,0,0,.935-.06,1.039,1.039,0,1,0-.266-2.061Zm0,0" transform="translate(-318.776 -403.842)" fill="#ec9b49" stroke="#ec9b49" stroke-width="0.5"/>
    <path id="Pfad_48" data-name="Pfad 48" d="M377.334,368.311a7.27,7.27,0,0,0-2.121-.312h-.272a1.039,1.039,0,0,0,0,2.078h.272a5.239,5.239,0,0,1,1.516.224,1.018,1.018,0,0,0,.3.046,1.039,1.039,0,0,0,.3-2.033Zm0,0" transform="translate(-325.721 -320.568)" fill="#ec9b49" stroke="#ec9b49" stroke-width="0.5"/>
    <path id="Pfad_49" data-name="Pfad 49" d="M362.124,298.078a1.039,1.039,0,1,0,0-2.078h-2.117a1.039,1.039,0,1,0,0,2.078Zm0,0" transform="translate(-312.712 -257.847)" fill="#ec9b49" stroke="#ec9b49" stroke-width="0.5"/>
    <path id="Pfad_50" data-name="Pfad 50" d="M413.25,435.775a1.039,1.039,0,0,0-1.373.52,5.186,5.186,0,0,1-.982,1.455,1.039,1.039,0,1,0,1.5,1.436,7.242,7.242,0,0,0,1.376-2.037A1.039,1.039,0,0,0,413.25,435.775Zm0,0" transform="translate(-357.719 -379.553)" fill="#ec9b49" stroke="#ec9b49" stroke-width="0.5"/>
    <path id="Pfad_51" data-name="Pfad 51" d="M456.787,273.12a1.039,1.039,0,0,0-1.292.7,3.152,3.152,0,0,1-.811,1.344,1.04,1.04,0,1,0,1.455,1.486,5.22,5.22,0,0,0,1.35-2.241,1.039,1.039,0,0,0-.7-1.292Zm0,0" transform="translate(-395.814 -237.887)" fill="#ec9b49" stroke="#ec9b49" stroke-width="0.5"/>
    <path id="Pfad_52" data-name="Pfad 52" d="M445.18,236.959a1.039,1.039,0,0,0,.774-1.733,5.228,5.228,0,0,0-2.182-1.446,1.039,1.039,0,0,0-.675,1.966,3.116,3.116,0,0,1,1.309.869A1.041,1.041,0,0,0,445.18,236.959Zm0,0" transform="translate(-385.394 -203.602)" fill="#ec9b49" stroke="#ec9b49" stroke-width="0.5"/>
    <path id="Pfad_53" data-name="Pfad 53" d="M328.163,368h-2.117a1.039,1.039,0,1,0,0,2.078h2.117a1.039,1.039,0,1,0,0-2.078Zm0,0" transform="translate(-283.127 -320.566)" fill="#ec9b49" stroke="#ec9b49" stroke-width="0.5"/>
    <path id="Pfad_54" data-name="Pfad 54" d="M411.02,296H408.9a1.039,1.039,0,1,0,0,2.078h2.118a1.039,1.039,0,1,0,0-2.078Zm0,0" transform="translate(-355.346 -257.847)" fill="#ec9b49" stroke="#ec9b49" stroke-width="0.5"/>
    <path id="Pfad_55" data-name="Pfad 55" d="M173.476,464h-2.117a1.039,1.039,0,0,0,0,2.078h2.117a1.039,1.039,0,0,0,0-2.078Zm0,0" transform="translate(-148.373 -404.193)" fill="#ec9b49" stroke="#ec9b49" stroke-width="0.5"/>
    <path id="Pfad_56" data-name="Pfad 56" d="M417.615,389.521A1.041,1.041,0,1,0,415.9,390.7a5.139,5.139,0,0,1,.727,1.595,1.039,1.039,0,1,0,2.011-.519A7.215,7.215,0,0,0,417.615,389.521Zm0,0" transform="translate(-362.179 -338.992)" fill="#ec9b49" stroke="#ec9b49" stroke-width="0.5"/>
    <path id="Pfad_57" data-name="Pfad 57" d="M234.682,355.51a3.7,3.7,0,0,1-1.265-1.034,1.039,1.039,0,0,0-1.642,1.275,5.765,5.765,0,0,0,1.987,1.622,1.039,1.039,0,0,0,.92-1.863Zm0,0" transform="translate(-201.717 -308.443)" fill="#ec9b49" stroke="#ec9b49" stroke-width="0.5"/>
    <path id="Pfad_58" data-name="Pfad 58" d="M222.358,464h-2.12a1.039,1.039,0,1,0,0,2.078h2.12a1.039,1.039,0,1,0,0-2.078Zm0,0" transform="translate(-190.953 -404.193)" fill="#ec9b49" stroke="#ec9b49" stroke-width="0.5"/>
    <path id="Pfad_59" data-name="Pfad 59" d="M320.187,464H318.07a1.039,1.039,0,0,0,0,2.078h2.117a1.039,1.039,0,1,0,0-2.078Zm0,0" transform="translate(-276.179 -404.193)" fill="#ec9b49" stroke="#ec9b49" stroke-width="0.5"/>
    <path id="Pfad_60" data-name="Pfad 60" d="M264.323,298.078a1.039,1.039,0,1,0,0-2.078h-2.117a1.039,1.039,0,0,0,0,2.078Zm0,0" transform="translate(-227.514 -257.847)" fill="#ec9b49" stroke="#ec9b49" stroke-width="0.5"/>
    <path id="Pfad_61" data-name="Pfad 61" d="M313.223,298.078a1.039,1.039,0,1,0,0-2.078H311.1a1.039,1.039,0,1,0,0,2.078Zm0,0" transform="translate(-270.108 -257.847)" fill="#ec9b49" stroke="#ec9b49" stroke-width="0.5"/>
    <path id="Pfad_62" data-name="Pfad 62" d="M279.262,368h-2.117a1.039,1.039,0,0,0,0,2.078h2.117a1.039,1.039,0,1,0,0-2.078Zm0,0" transform="translate(-240.527 -320.566)" fill="#ec9b49" stroke="#ec9b49" stroke-width="0.5"/>
    <path id="Pfad_63" data-name="Pfad 63" d="M271.285,464h-2.118a1.039,1.039,0,1,0,0,2.078h2.118a1.039,1.039,0,0,0,0-2.078Zm0,0" transform="translate(-233.578 -404.193)" fill="#ec9b49" stroke="#ec9b49" stroke-width="0.5"/>
    <path id="Pfad_64" data-name="Pfad 64" d="M82.078,464H81.039a1.039,1.039,0,0,0,0,2.078h1.039a1.039,1.039,0,0,0,0-2.078Zm0,0" transform="translate(-69.69 -404.193)" fill="#ec9b49" stroke="#ec9b49" stroke-width="0.5"/>
  </g>
</svg>
